<svg height="512" viewBox="0 0 64 64" width="512" xmlns="http://www.w3.org/2000/svg"><g id="Layer_34" data-name="Layer 34"><g id="fast_delivery" data-name="fast delivery"><path d="m45 30-14 22v7a2.006 2.006 0 0 1 -2 2h-20v-12h-6v-11a8.012 8.012 0 0 1 7-8l3-1 4 4 4-4 3 1a8.012 8.012 0 0 1 7 8v3l8-11z" fill="#57a4ff"/><path d="m45 30-14 22v7a2.006 2.006 0 0 1 -2 2h-3a2.006 2.006 0 0 0 2-2v-7l14-22z" fill="#2488ff"/><circle cx="50" cy="50" fill="#ffde55" r="11"/><path d="m61 50a11 11 0 0 1 -20.52 5.52 11.007 11.007 0 0 0 15.04-15.04 10.98 10.98 0 0 1 5.48 9.52z" fill="#ffcd00"/><rect fill="#c0ab91" height="16" rx="2" width="16" x="39" y="6"/><path d="m55 8v12a2.006 2.006 0 0 1 -2 2h-4a2.006 2.006 0 0 0 2-2v-12a2.006 2.006 0 0 0 -2-2h4a2.006 2.006 0 0 1 2 2z" fill="#b39a7c"/><path d="m43 26h10a3.995 3.995 0 0 1 -4 4h-10a3.995 3.995 0 0 1 4-4z" fill="#ffdaaa"/><path d="m49 6v8l-2-2-2 2v-8z" fill="#57a4ff"/><path d="m26 17v1a1 1 0 0 1 -1 1h-2v-3h2a1 1 0 0 1 1 1z" fill="#ffdaaa"/><path d="m26 5v4a5.985 5.985 0 0 1 -3 5.19v-1.19l-8-2-4 2v2h-1a2.006 2.006 0 0 1 -2-2v-2a6 6 0 0 1 6-6z" fill="#ffde55"/><path d="m23 13v6a5.985 5.985 0 0 1 -3 5.19 5.961 5.961 0 0 1 -6 0 5.985 5.985 0 0 1 -3-5.19v-6l4-2z" fill="#ffdaaa"/><path d="m26 5v4a5.985 5.985 0 0 1 -3 5.19v-1.19l-.44-.11a5.959 5.959 0 0 0 1.44-3.89v-4z" fill="#ffcd00"/><path d="m23 13v6a5.985 5.985 0 0 1 -3 5.19 5.857 5.857 0 0 1 -3 .81 6.531 6.531 0 0 1 -1-.08 5.79 5.79 0 0 0 2-.73 5.985 5.985 0 0 0 3-5.19v-6l-6.67-1.67.67-.33z" fill="#ffc477"/><path d="m21 29-4 4-4-4 1-1v-3.81a5.961 5.961 0 0 0 6 0v3.81z" fill="#ffdaaa"/><path d="m21 29-4 4-1-1 3-3-1-1v-3.08a5.79 5.79 0 0 0 2-.73v3.81z" fill="#ffc477"/><path d="m19.67 41 1.33 8-4 4-4-4 1.33-8z" fill="#00b6bd"/><path d="m19 37 .67 4h-5.34l.67-4z" fill="#ffde55"/><path d="m11 16v3h-2a1 1 0 0 1 -1-1v-1a1 1 0 0 1 1-1z" fill="#ffdaaa"/><path d="m3 49h6v12h-6z" fill="#ffdaaa"/><path d="m24 30-5 7h-4l-5-7 3-1 4 4 4-4z" fill="#00b6bd"/><path d="m53 25h-10a4.979 4.979 0 0 0 -4.96 4.62l-6.04 8.3a9.008 9.008 0 0 0 -7.75-8.89l-2.71-.9-.54-.54v-2.85a7.007 7.007 0 0 0 2.92-4.74h1.08a2.006 2.006 0 0 0 2-2v-1a2.006 2.006 0 0 0 -2-2h-1v-.28a6.981 6.981 0 0 0 3-5.72v-4a1 1 0 0 0 -1-1h-12a7.008 7.008 0 0 0 -7 7v2a3.021 3.021 0 0 0 1.04 2.26 1.984 1.984 0 0 0 -1.04 1.74v1a2.006 2.006 0 0 0 2 2h1.08a7.007 7.007 0 0 0 2.92 4.74v2.85l-.54.54-2.71.9a9 9 0 0 0 -7.75 8.97v23a1 1 0 0 0 1 1h26a3.009 3.009 0 0 0 3-3v-6.71l13.55-21.29h3.45a5 5 0 0 0 5-5 1 1 0 0 0 -1-1zm-28-8v1h-1v-1zm-15 1h-1v-1h1zm.55-5.89a.988.988 0 0 0 -.55.89v1a1 1 0 0 1 -1-1v-2a5 5 0 0 1 5-5h11v3a4.971 4.971 0 0 1 -1.28 3.32 1.072 1.072 0 0 0 -.48-.29l-8-2a.978.978 0 0 0 -.69.08zm1.45 6.89v-5.38l3.12-1.56 6.88 1.72v5.22a5 5 0 0 1 -10 0zm7.29 9.71.3.29-2.59 2.59-2.59-2.59.3-.29a1.033 1.033 0 0 0 .29-.71v-2.29a7.042 7.042 0 0 0 4 0v2.29a1.033 1.033 0 0 0 .29.71zm-6.56 1.43 3.56 3.57a1.008 1.008 0 0 0 1.42 0l3.56-3.57 1.13.38-3.91 5.48h-2.98l-3.91-5.48zm6.09 11.86 1.11 6.66-2.93 2.93-2.93-2.93 1.11-6.66zm-3.31-2 .34-2h2.3l.34 2zm-7.51 20h-4v-10h4zm22.16-8.54a.949.949 0 0 0 -.16.54v7a1 1 0 0 1 -1 1h-19v-11a1 1 0 0 0 -1-1h-5v-10a7.015 7.015 0 0 1 5.55-6.91l4.4 6.15-1.94 11.6a1.011 1.011 0 0 0 .28.87l4 4a1.014 1.014 0 0 0 1.42 0l4-4a1.011 1.011 0 0 0 .28-.87l-1.94-11.6 4.4-6.15a7.015 7.015 0 0 1 5.55 6.91v3a1 1 0 0 0 1.81.59l7.7-10.59h3.67zm18.84-22.46h-8.83a3.014 3.014 0 0 1 2.83-2h8.83a3.014 3.014 0 0 1 -2.83 2z"/><path d="m53 5h-12a3.009 3.009 0 0 0 -3 3v12a3.009 3.009 0 0 0 3 3h12a3.009 3.009 0 0 0 3-3v-12a3.009 3.009 0 0 0 -3-3zm-7 2h2v4.59l-.29-.3a1.008 1.008 0 0 0 -1.42 0l-.29.3zm8 13a1 1 0 0 1 -1 1h-12a1 1 0 0 1 -1-1v-12a1 1 0 0 1 1-1h3v7a.987.987 0 0 0 .62.92 1 1 0 0 0 1.09-.21l1.29-1.3 1.29 1.3a1.007 1.007 0 0 0 .71.29.838.838 0 0 0 .38-.08.987.987 0 0 0 .62-.92v-7h3a1 1 0 0 1 1 1z"/><path d="m50 38a12 12 0 1 0 12 12 12.013 12.013 0 0 0 -12-12zm0 22a10 10 0 1 1 10-10 10.011 10.011 0 0 1 -10 10z"/><path d="m14 15h2v2h-2z"/><path d="m18 15h2v2h-2z"/><path d="m51 42h-2v8a1 1 0 0 0 1 1h6v-2h-5z"/></g></g></svg>